<?xml version="1.0" standalone="no"?><svg xmlns="http://www.w3.org/2000/svg" viewBox="0 0 1440 320"><path fill="#0099ff" fill-opacity="1" d="M0,256L30,250.7C60,245,120,235,180,202.7C240,171,300,117,360,96C420,75,480,85,540,101.3C600,117,660,139,720,144C780,149,840,139,900,154.7C960,171,1020,213,1080,197.3C1140,181,1200,107,1260,85.3C1320,64,1380,96,1410,112L1440,128L1440,320L1410,320C1380,320,1320,320,1260,320C1200,320,1140,320,1080,320C1020,320,960,320,900,320C840,320,780,320,720,320C660,320,600,320,540,320C480,320,420,320,360,320C300,320,240,320,180,320C120,320,60,320,30,320L0,320Z"></path></svg>