<?xml version="1.0" standalone="no"?><svg xmlns="http://www.w3.org/2000/svg" viewBox="0 0 1440 320"><path fill="#0099ff" fill-opacity="1" d="M0,32L15,58.7C30,85,60,139,90,165.3C120,192,150,192,180,208C210,224,240,256,270,229.3C300,203,330,117,360,101.3C390,85,420,139,450,133.3C480,128,510,64,540,37.3C570,11,600,21,630,74.7C660,128,690,224,720,256C750,288,780,256,810,229.3C840,203,870,181,900,181.3C930,181,960,203,990,218.7C1020,235,1050,245,1080,256C1110,267,1140,277,1170,277.3C1200,277,1230,267,1260,240C1290,213,1320,171,1350,181.3C1380,192,1410,256,1425,288L1440,320L1440,320L1425,320C1410,320,1380,320,1350,320C1320,320,1290,320,1260,320C1230,320,1200,320,1170,320C1140,320,1110,320,1080,320C1050,320,1020,320,990,320C960,320,930,320,900,320C870,320,840,320,810,320C780,320,750,320,720,320C690,320,660,320,630,320C600,320,570,320,540,320C510,320,480,320,450,320C420,320,390,320,360,320C330,320,300,320,270,320C240,320,210,320,180,320C150,320,120,320,90,320C60,320,30,320,15,320L0,320Z"></path></svg>